<?xml version="1.0" encoding="utf-8"?>
<!-- Generator: Adobe Illustrator 16.0.0, SVG Export Plug-In . SVG Version: 6.00 Build 0)  -->
<!DOCTYPE svg PUBLIC "-//W3C//DTD SVG 1.1//EN" "http://www.w3.org/Graphics/SVG/1.1/DTD/svg11.dtd">
<svg version="1.1" id="Capa_1" xmlns="http://www.w3.org/2000/svg" xmlns:xlink="http://www.w3.org/1999/xlink" x="0px" y="0px"
	 width="1259.937px" height="694.459px" viewBox="-33.824 0.674 1259.937 694.459"
	 enable-background="new -33.824 0.674 1259.937 694.459" xml:space="preserve">
<text transform="matrix(1 0 0 1 785.2188 386.7988)" font-family="'IndieFlower'" font-size="232.0734">yo.</text>
<g>
	<path d="M241.927,316.744c-0.052,0-0.104,0-0.156,0.002c-9.271,0.084-16.746,7.696-16.66,16.968
		c0.084,9.22,7.61,16.662,16.813,16.662c0.051,0,0.104,0,0.154-0.001c9.272-0.084,16.747-7.695,16.661-16.968
		C258.654,324.188,251.128,316.744,241.927,316.744z"/>
	<path d="M426.27,315.068c-4.492,0.041-8.698,1.828-11.846,5.033c-3.146,3.205-4.857,7.443-4.817,11.935
		c0.084,9.221,7.612,16.664,16.814,16.664c0.05,0,0.103,0,0.153-0.002c4.492-0.041,8.698-1.828,11.846-5.033
		s4.856-7.441,4.816-11.934c-0.04-4.491-1.827-8.698-5.032-11.846C435,316.738,430.79,315.003,426.27,315.068z"/>
	<path d="M572.515,278.363c-13.609-7.241-32.693-14.523-43.017-14.523c-0.065,0-0.132,0-0.196,0.001
		c-8.491,0.077-15.608,5.356-22.492,10.46c-9.106,6.752-15.261,10.887-22.415,8.258c1.423-15.601,2.314-27.822,2.683-35.206
		c21.974-6.302,88.967-26.942,108.166-49.438c10.915-12.79,13.014-34.043,6.235-63.168c-4.748-20.41-12.171-37.325-12.484-38.035
		c-1.517-3.432-5.122-5.446-8.835-4.948c-3.718,0.501-6.657,3.397-7.213,7.106c-1.964,13.127-8.743,50.233-16.386,64.044
		c-0.202,0.294-5.458,7.267-48.759,14.342c-23.119,3.777-45.236,5.624-45.458,5.644c-0.786,0.065-1.534,0.243-2.239,0.504
		c-6.349-5.554-13.587-10.262-21.501-13.761c-26.682-11.793-70.731-15.995-103.059-15.995c-32.328,0-76.377,4.202-103.059,15.995
		c-7.905,3.494-15.135,8.195-21.479,13.741c-0.688-0.25-1.415-0.422-2.181-0.484c-0.221-0.019-22.338-1.866-45.457-5.643
		c-43.299-7.074-48.556-14.048-48.723-14.282c-7.677-13.87-14.456-50.976-16.42-64.103c-0.555-3.711-3.495-6.607-7.213-7.107
		c-3.718-0.502-7.319,1.517-8.833,4.948c-0.314,0.71-7.737,17.625-12.486,38.035c-6.778,29.125-4.679,50.378,6.237,63.168
		c19.548,22.906,87.782,44.017,108.108,49.913c0.396,7.724,1.339,20.432,2.828,36.571c-7.425,3.352-13.764-0.697-23.313-7.513
		c-6.977-4.979-14.225-10.103-22.679-10.05c-10.276,0.093-29.379,7.771-42.94,15.305c-21.421,11.903-32.228,23.929-32.121,35.741
		c0.149,16.484,31.443,37.125,59.432,45.342c9.951,2.92,19.431,4.357,28.276,4.356c16.125-0.001,30.113-4.801,40.945-14.065
		c9.836,77.7,26.55,175.289,50.436,225.724c0.135,0.288,0.299,0.553,0.462,0.817c-0.954,10.655,2.167,21.241,8.96,29.78
		c8.104,10.186,20.188,15.917,33.141,15.841l98.571,0.158c0.004,0,0.009,0,0.014,0c0.026,0,0.051,0,0.077,0
		c13.016-0.118,25.021-6.112,32.937-16.443c7.116-9.288,9.973-20.853,8.104-32.248c23.604-51.526,40.095-148.956,49.754-225.971
		c10.72,8.993,24.407,13.64,40.1,13.64c9.263,0,19.216-1.61,29.66-4.884c27.836-8.724,58.748-29.93,58.599-46.415
		C605.172,301.703,594.148,289.877,572.515,278.363z M511.38,193.753c46.22-7.637,56.289-16.097,59.897-22.616
		c4.979-8.995,9.225-24.251,12.375-38.211c0.51,1.916,1.001,3.881,1.463,5.874c5.282,22.839,4.324,39.946-2.695,48.172
		c-13.734,16.095-66.788,34.339-95.729,42.93c-1.625-10.877-6.116-21.597-12.813-31.172
		C482.898,197.788,496.855,196.151,511.38,193.753z M88.754,186.97c-7.02-8.224-7.975-25.331-2.694-48.171
		c0.461-1.994,0.953-3.957,1.462-5.874c3.151,13.961,7.397,29.215,12.375,38.211c3.607,6.52,13.677,14.979,59.897,22.616
		c14.485,2.393,28.404,4.026,37.426,4.969c-6.788,9.704-11.309,20.585-12.878,31.614C156.036,221.821,102.654,203.259,88.754,186.97
		z M191.291,331.828c-7.164,10.932-21.811,22.869-50.91,17.682c-13.189-2.353-27.776-8.14-40.021-15.878
		c-12.095-7.643-17.061-14.028-17.682-16.099c0.222-3.262,6.539-11.26,23.446-20.656c15.359-8.534,30.139-13.141,34.905-13.185
		c0.011,0,0.022,0,0.032,0c3.012,0,8.158,3.673,12.698,6.915c8.868,6.33,20.58,14.678,34.781,11.043
		c0.934,9.176,2.005,19.083,3.219,29.536C191.596,331.393,191.438,331.605,191.291,331.828z M405.682,599.139
		c-4.729,6.172-11.896,9.756-19.667,9.839l-98.613-0.156c-7.78,0.054-15.035-3.384-19.884-9.48
		c-4.85-6.095-6.586-13.934-4.766-21.507l6.55-27.255c1.13-4.696,3.147-8.966,5.836-12.633c0.589,2.974,1.659,5.653,2.993,7.784
		c2.376,3.787,5.857,6.947,9.223,10.005c2.415,2.192,6.911,6.273,7.118,7.851c-0.003,0.016-0.454,1.695-4.84,4.749
		c-3.818,2.662-4.759,7.915-2.097,11.735c1.639,2.352,4.259,3.61,6.923,3.61c1.664,0,3.343-0.491,4.812-1.515
		c7.677-5.349,11.609-11.063,12.021-17.467c0.607-9.45-6.718-16.102-12.605-21.446c-2.521-2.29-5.13-4.657-6.271-6.478
		c-0.895-1.429-1.438-4.804-0.127-7.431c1.702-3.416,6.169-4.59,9.794-4.96l66.63,0.416c3.688,0.264,8.414,1.315,10.237,4.811
		c1.356,2.603,0.876,5.987,0.007,7.43c-1.105,1.836-3.532,4.199-5.877,6.486c-5.606,5.463-12.582,12.261-11.726,21.647
		c0.587,6.427,4.688,12.108,12.537,17.368c1.441,0.966,3.072,1.427,4.686,1.427c2.717,0,5.384-1.311,7.009-3.737
		c2.592-3.867,1.558-9.104-2.31-11.694c-4.629-3.101-5.13-4.878-5.132-4.878c0.079-1.606,4.551-5.964,6.7-8.058
		c3.111-3.032,6.33-6.169,8.556-9.866c1.368-2.273,2.422-5.161,2.928-8.342c3.091,3.747,5.422,8.161,6.686,13.023l7.045,27.132
		C412.014,585.088,410.419,592.957,405.682,599.139z M420.124,549.251l-0.797-3.07c-5.771-22.219-26.438-38.234-49.247-38.234
		c-0.125,0-0.252,0-0.376,0.001l-67.537-0.423c-0.169-0.008-0.337-0.006-0.509-0.003l-0.595-0.005c-0.043,0-0.086,0-0.128,0
		c-22.788,0.207-42.537,16.294-48.023,39.12l-1.156,4.81c-16.239-45.461-28.216-112.69-35.764-164.662
		c-9.802-67.493-15.178-130.333-15.313-145.095c-0.001-0.268-0.019-0.531-0.046-0.791c-1.074-21.663,15.425-45.564,38.672-55.841
		c20.005-8.842,57.782-14.556,96.242-14.556c38.461,0,76.236,5.714,96.242,14.556c22.542,9.965,38.74,32.739,38.724,53.861
		c-0.28,1.129-0.328,2.327-0.109,3.53c-0.299,16.048-5.66,77.94-15.303,144.335C447.675,437.921,435.967,503.844,420.124,549.251z
		 M571.028,329.889c-12.104,7.959-26.583,14.012-39.728,16.604c-28.999,5.716-43.863-5.953-51.224-16.752
		c-0.157-0.231-0.325-0.45-0.5-0.659c1.201-10.448,2.261-20.332,3.179-29.458c14.046,3.075,25.442-5.363,34.097-11.781
		c4.497-3.335,9.597-7.116,12.604-7.143c0.023,0,0.047,0,0.07,0c4.841,0,19.633,4.333,35.068,12.547
		c17.076,9.087,23.535,16.969,23.817,20.225C587.829,315.553,582.98,322.027,571.028,329.889z"/>
	<path d="M414.721,211.938c3.145-3.432,2.913-8.765-0.52-11.909c-3.433-3.146-8.764-2.913-11.91,0.52
		c-6.521,7.116-41.177,25.316-66.341,30.298l5.274-21.947c0.826-3.434-0.576-7.019-3.514-8.98c-2.939-1.961-6.786-1.882-9.643,0.196
		c-12.908,9.397-65.274,32.57-103.831,32.921c-4.655,0.043-8.395,3.851-8.353,8.506c0.041,4.629,3.807,8.354,8.427,8.353
		c0.025,0,0.053,0,0.078,0c32.152-0.292,71.973-14.593,95.938-26.187l-3.575,14.872c-0.607,2.523-0.017,5.186,1.601,7.217
		c1.6,2.012,4.028,3.183,6.597,3.183c0.024,0,0.05,0,0.076,0C354.645,248.708,403.981,223.655,414.721,211.938z"/>
	<path d="M417.204,248.142c1.679,0,3.376-0.501,4.853-1.543c7.507-5.298,17.223-17.167,18.308-18.504
		c2.931-3.614,2.377-8.921-1.237-11.853c-3.615-2.935-8.924-2.38-11.855,1.234c-2.542,3.131-10.18,11.991-14.936,15.349
		c-3.803,2.685-4.71,7.944-2.026,11.746C411.952,246.898,414.557,248.142,417.204,248.142z"/>
</g>
<g>
	<path fill="#010002" d="M982.738,147.082c-118.855-46.806-250.126,2.871-292.605,110.74
		c-25.264,64.155-14.252,137.889,29.457,197.34c-23.394,65.771-67.673,114.457-69.55,116.477l-15.274,16.443l199.871-47.535
		c116.77,42.662,245.25-7.912,286.613-112.947C1163.744,319.725,1101.602,193.89,982.738,147.082z M835.535,526.345l-162.107,38.555
		c16.563-21.069,43.686-60.287,60.229-108.688l1.151-3.437l-2.18-2.88c-42.657-56.229-53.807-126.148-29.81-187.084
		c39.725-100.873,163.053-147.112,274.929-103.055c111.875,44.056,170.56,161.972,130.836,262.845
		c-39,99.035-160.611,145.89-271.122,104.472L835.535,526.345z"/>
</g>
</svg>
